<?xml version="1.0" standalone="no"?>
<!DOCTYPE svg PUBLIC "-//W3C//DTD SVG 20010904//EN"
 "http://www.w3.org/TR/2001/REC-SVG-20010904/DTD/svg10.dtd">
<svg version="1.0" xmlns="http://www.w3.org/2000/svg"
 width="2548.000000pt" height="488.000000pt" viewBox="0 0 2548.000000 488.000000"
 preserveAspectRatio="xMidYMid meet">

<g transform="translate(0.000000,488.000000) scale(0.100000,-0.100000)"
fill="#FFFFFF" stroke="none">
<path d="M2085 4716 c-16 -7 -55 -30 -85 -50 -30 -20 -64 -36 -75 -35 -40 3
-46 -2 -66 -46 -24 -53 -34 -55 -109 -15 -60 33 -105 38 -136 16 -15 -11 -19
-28 -20 -73 -1 -32 -2 -64 -3 -70 -1 -18 -31 -16 -52 3 -23 21 -100 30 -128
15 -11 -7 -21 -20 -21 -30 0 -30 -26 -44 -65 -37 -39 8 -88 -13 -104 -42 -15
-29 -41 -204 -41 -279 0 -38 -4 -73 -8 -79 -4 -6 -33 -13 -65 -16 -89 -7 -91
-12 -87 -175 7 -248 9 -233 -29 -286 -32 -44 -35 -53 -34 -118 2 -125 47 -144
209 -88 77 27 103 31 194 32 85 0 115 -4 160 -22 116 -46 140 -63 140 -99 0
-36 -30 -133 -52 -170 -16 -26 -20 -48 -18 -105 4 -109 2 -116 -32 -148 -31
-27 -58 -39 -120 -53 -37 -8 -35 -22 4 -42 l33 -17 -23 -15 c-33 -22 -27 -32
19 -32 79 0 18 -45 -123 -90 -82 -26 -102 -48 -117 -132 -15 -78 2 -172 43
-236 22 -36 42 -50 119 -87 51 -24 105 -54 120 -67 22 -18 44 -23 102 -26 63
-4 86 0 164 28 94 34 135 35 175 5 18 -13 17 -16 -3 -77 -12 -37 -38 -84 -62
-113 -23 -28 -51 -73 -64 -100 -23 -52 -73 -99 -117 -110 -17 -4 -40 1 -67 15
-35 17 -52 20 -102 14 -110 -12 -176 -74 -226 -211 -22 -61 -37 -81 -147 -193
-67 -69 -150 -160 -184 -203 -76 -96 -144 -155 -225 -197 -67 -34 -120 -78
-156 -129 -32 -45 -63 -158 -56 -206 15 -108 105 -222 198 -250 95 -28 177
-15 332 53 156 68 255 64 369 -14 82 -55 107 -68 204 -99 72 -23 96 -26 180
-23 85 3 105 7 165 36 74 36 178 127 246 216 47 61 64 67 217 84 104 12 129
23 211 89 50 41 66 48 118 54 33 4 94 12 135 18 41 6 105 11 142 11 63 0 71
-2 105 -34 54 -47 69 -54 183 -76 55 -11 115 -28 133 -37 24 -13 69 -19 172
-24 96 -4 162 -13 210 -27 39 -11 99 -25 135 -30 51 -8 87 -22 162 -66 53 -31
99 -56 102 -56 3 0 27 -14 53 -30 38 -24 58 -30 103 -30 64 0 80 12 99 70 24
76 32 151 32 298 l0 154 39 41 c44 48 65 112 51 151 -17 43 -80 104 -159 152
-42 25 -103 71 -137 101 -70 65 -142 101 -217 110 -46 6 -60 13 -108 58 -30
28 -67 59 -82 68 -16 10 -39 39 -53 66 -16 33 -49 69 -97 110 -40 33 -110 100
-155 150 -98 106 -180 163 -274 191 -56 17 -72 26 -84 50 -11 21 -12 36 -6 53
9 24 13 25 98 23 80 -2 97 -6 168 -40 112 -53 141 -56 217 -18 35 17 88 34
118 37 99 11 152 52 170 131 27 115 -5 206 -99 278 -81 62 -88 72 -67 94 36
40 4 79 -86 107 -32 10 -62 23 -67 29 -13 17 -20 153 -8 165 6 6 21 11 32 11
42 0 115 32 134 59 10 14 24 46 31 71 7 25 23 63 35 85 29 50 41 123 26 167
-6 18 -15 74 -21 123 -16 141 -27 173 -71 200 -20 14 -50 27 -66 31 -69 17
-69 44 1 78 62 31 97 76 120 156 20 69 13 95 -48 189 -41 62 -51 71 -76 71
-22 0 -42 12 -74 44 -41 40 -44 46 -39 84 8 60 -27 92 -141 127 -109 34 -205
33 -250 -3 -41 -32 -50 -20 -42 60 8 93 -5 141 -48 167 -18 12 -47 21 -63 21
-63 0 -205 -96 -225 -151 -10 -28 -42 6 -53 58 -9 39 -47 113 -58 113 -1 0
-34 9 -72 20 -49 15 -112 23 -214 27 -135 5 -145 4 -172 -16 -35 -26 -54 -26
-86 -1 -31 24 -140 27 -188 6z m187 -78 c85 -104 162 -316 178 -492 9 -99 8
-110 -8 -122 -9 -7 -24 -13 -32 -14 -8 0 -36 -8 -63 -17 l-47 -17 -31 30 -30
31 15 82 c20 103 20 181 2 226 -8 19 -42 63 -75 99 -34 36 -61 70 -61 75 0 14
-49 43 -68 39 -12 -2 -5 -16 33 -59 146 -163 145 -161 145 -239 0 -78 -18
-180 -35 -198 -21 -23 -45 -2 -61 57 -22 75 -90 183 -159 251 -42 42 -59 67
-71 107 -14 47 -14 55 1 83 20 39 38 46 67 26 33 -24 58 -21 58 7 0 46 73 86
156 87 49 0 54 -2 86 -42z m906 -117 c4 -38 -32 -117 -60 -132 -23 -13 -73 4
-82 28 -5 12 73 109 109 135 18 13 30 2 33 -31z m-178 -16 c0 -8 -4 -15 -10
-15 -5 0 -10 -7 -10 -15 0 -8 -9 -15 -20 -15 -26 0 -25 8 3 35 27 27 37 30 37
10z m-263 -87 c-3 -7 -5 -2 -5 12 0 14 2 19 5 13 2 -7 2 -19 0 -25z m219 19
c10 -26 -55 -234 -91 -293 -19 -33 -35 -64 -35 -71 0 -15 -32 -33 -59 -33 -45
0 -26 70 50 181 20 28 59 127 59 148 0 7 9 29 21 47 21 35 46 44 55 21z
m-1496 -48 c0 -6 -4 -7 -10 -4 -5 3 -10 11 -10 16 0 6 5 7 10 4 6 -3 10 -11
10 -16z m138 -56 c30 -35 62 -114 62 -154 0 -9 -6 -22 -14 -28 -12 -10 -17 -8
-26 8 -6 12 -16 21 -24 21 -7 0 -31 16 -54 36 -50 43 -72 100 -53 140 10 23
16 26 44 20 20 -4 44 -20 65 -43z m1598 23 c10 -27 -25 -121 -62 -169 -21 -26
-68 -66 -111 -93 -41 -25 -95 -64 -119 -85 -50 -43 -54 -45 -72 -27 -25 25 -9
48 105 154 115 108 175 168 213 212 22 25 38 28 46 8z m-1116 -214 c20 -51 47
-103 59 -116 24 -26 23 -56 -2 -56 -17 0 -57 44 -87 95 -26 47 -63 172 -54
186 14 24 50 -23 84 -109z m-313 46 c18 -18 33 -36 33 -42 0 -5 6 -17 13 -25
19 -22 107 -230 107 -253 0 -60 -89 -2 -134 87 -39 78 -77 182 -83 228 -4 31
-2 37 13 37 10 0 33 -14 51 -32z m1933 -17 c18 -35 -4 -67 -66 -96 -42 -20
-65 -25 -90 -20 -19 3 -34 8 -34 11 0 8 99 97 124 111 31 18 54 16 66 -6z
m-2053 -54 c20 -20 37 -47 79 -122 9 -16 39 -58 65 -93 50 -64 61 -105 33
-116 -16 -6 -31 7 -120 110 -54 63 -137 180 -146 204 -3 8 -1 23 4 33 12 24
53 16 85 -16z m2153 -12 c11 -13 10 -21 -7 -43 -29 -39 -109 -98 -151 -110
-100 -30 -251 -23 -240 11 3 6 47 24 99 39 114 32 155 49 211 88 49 33 70 37
88 15z m-1166 -131 c21 -21 20 -31 -5 -44 -16 -9 -26 -8 -45 5 -26 17 -32 40
-11 48 24 10 46 7 61 -9z m-319 -30 c9 -9 14 -21 12 -28 -6 -18 -62 -19 -77 0
-12 14 -12 18 5 30 25 18 40 18 60 -2z m899 -4 c31 -11 32 -20 6 -48 -44 -47
-139 -46 -148 2 -5 24 9 36 50 46 47 11 63 11 92 0z m-2041 -20 c31 -11 62
-20 68 -20 22 0 203 -82 257 -117 120 -76 211 -187 198 -239 -7 -28 -40 -32
-72 -9 -29 20 -117 51 -194 70 -82 19 -201 19 -262 0 -43 -12 -49 -12 -67 3
-17 14 -22 37 -31 151 -9 116 -8 138 5 158 19 28 26 28 98 3z m887 -75 c19
-22 -5 -45 -47 -45 -21 0 -36 6 -39 15 -11 28 4 45 39 45 19 0 40 -7 47 -15z
m645 -35 c214 -21 351 -85 406 -192 10 -20 26 -74 36 -120 14 -72 15 -94 4
-173 -16 -109 -48 -204 -98 -293 -46 -79 -77 -100 -175 -114 -40 -6 -97 -21
-127 -34 -64 -28 -70 -29 -115 -8 -33 16 -37 16 -93 -4 -45 -16 -78 -21 -143
-19 -52 1 -97 -3 -116 -11 -51 -22 -103 -1 -191 75 -182 159 -273 351 -253
533 13 116 78 189 235 265 108 52 232 82 380 94 61 4 117 9 125 10 8 0 65 -4
125 -9z m435 -5 c15 -18 6 -45 -15 -45 -18 0 -30 24 -21 45 7 19 20 19 36 0z
m247 -120 c24 -10 71 -15 149 -15 99 0 126 -4 207 -30 120 -38 147 -64 154
-149 6 -59 5 -61 -22 -71 -47 -18 -104 2 -240 84 -33 20 -91 46 -128 58 -67
20 -90 20 -182 2 -26 -5 -36 0 -63 27 -41 42 -48 66 -26 90 21 24 98 26 151 4z
m-1553 -1 c24 -9 19 -40 -11 -64 -29 -23 -41 -22 -57 4 -9 14 -6 22 17 42 31
27 30 26 51 18z m1658 -165 c29 -6 112 -40 184 -75 71 -35 142 -64 156 -64 25
0 46 -15 36 -26 -3 -2 -31 -7 -64 -10 -32 -2 -78 -12 -102 -20 -24 -9 -55 -14
-70 -11 -52 11 -169 45 -206 61 -46 19 -116 84 -116 107 0 45 75 60 182 38z
m-2282 -8 c14 -4 26 -14 28 -23 7 -38 -139 -52 -162 -15 -23 37 57 60 134 38z
m572 -167 c1 -16 -2 -40 -7 -53 -6 -19 -2 -28 20 -45 25 -20 27 -27 21 -60 -9
-48 -51 -93 -70 -77 -22 18 -25 45 -10 87 18 53 17 64 -5 64 -22 0 -37 32 -24
53 21 36 59 74 66 67 5 -4 9 -20 9 -36z m2137 -28 c12 -14 5 -129 -11 -158 -6
-13 -21 -18 -47 -18 -34 0 -43 6 -90 59 -72 84 -66 110 24 112 27 0 59 4 70 9
29 12 41 12 54 -4z m-493 -157 c14 -15 16 -24 8 -37 -16 -25 -37 -25 -62 -2
-18 17 -20 25 -12 40 14 26 42 25 66 -1z m-216 -36 c0 -7 13 -19 29 -28 20
-10 32 -25 36 -47 9 -40 27 -62 64 -78 21 -8 35 -27 54 -76 32 -78 35 -124 7
-149 -14 -13 -18 -25 -13 -43 6 -24 4 -25 -30 -19 -19 3 -66 20 -104 37 -37
18 -85 38 -105 45 -44 16 -88 43 -105 64 -24 28 -15 80 21 124 34 43 67 103
81 147 4 14 15 36 23 49 15 22 16 22 29 5 7 -10 13 -24 13 -31z m-1251 -153
c18 -22 68 -70 112 -107 44 -37 78 -71 76 -77 -2 -6 -18 -13 -35 -17 -39 -8
-62 -26 -62 -48 0 -35 -21 -41 -140 -41 -132 0 -147 6 -156 62 -9 51 1 83 40
126 18 20 36 47 40 59 7 22 69 83 85 83 4 0 22 -18 40 -40z m996 -121 c0 -23
-3 -24 -75 -27 -61 -2 -73 -1 -62 10 14 14 111 47 127 44 6 -2 10 -14 10 -27z
m709 8 c26 -19 17 -51 -16 -55 -56 -7 -92 39 -45 58 31 12 41 12 61 -3z m-874
-49 c0 -19 -50 -26 -157 -21 -89 5 -120 2 -152 -11 -50 -20 -150 -21 -176 -3
-30 23 -3 29 113 28 59 -1 113 3 120 8 18 11 252 11 252 -1z m228 -62 c13 -12
13 -18 3 -30 -10 -12 -18 -13 -34 -5 -13 8 -44 9 -91 4 -39 -4 -111 -9 -161
-10 -100 -2 -195 -14 -210 -26 -6 -4 -62 -7 -126 -7 -64 0 -126 -3 -137 -6
-22 -7 -56 19 -47 35 4 5 57 9 119 9 71 0 131 5 162 15 30 9 93 15 164 16 65
0 135 6 160 14 57 17 178 12 198 -9z m-861 -42 c3 -8 -4 -26 -18 -40 -21 -23
-24 -38 -31 -152 -7 -123 -20 -193 -46 -239 -6 -12 -12 -29 -12 -38 0 -9 -7
-31 -14 -48 -8 -18 -19 -48 -24 -67 -16 -65 -91 -42 -77 24 25 117 10 172 -19
71 -19 -64 -46 -88 -160 -140 -115 -52 -142 -45 -111 29 25 59 23 198 -4 267
-23 61 -53 99 -77 99 -13 0 -13 -6 5 -36 52 -88 81 -256 49 -281 -34 -26 -95
-35 -150 -24 -129 27 -188 100 -188 232 0 86 10 106 72 146 37 23 45 24 78 14
55 -16 74 -14 99 13 13 14 45 30 75 37 28 6 59 16 70 21 23 12 154 34 264 43
67 6 87 4 107 -9 23 -15 25 -15 36 5 8 16 8 28 0 45 -8 19 -7 25 7 33 26 16
62 13 69 -5z m1008 -3 c39 -23 197 -77 266 -90 30 -5 67 -14 82 -20 16 -6 55
-11 87 -11 57 0 90 -15 90 -41 0 -5 -18 -33 -39 -62 -59 -78 -75 -133 -66
-238 6 -78 4 -88 -12 -97 -13 -8 -26 -6 -50 9 -18 11 -67 31 -108 44 -74 22
-75 23 -99 4 -32 -26 -41 -24 -66 11 -37 52 -43 39 -36 -69 8 -124 6 -126
-122 -116 -76 6 -100 4 -186 -19 -104 -28 -167 -32 -231 -15 -22 5 -58 15 -80
21 -22 5 -78 9 -125 7 -194 -7 -375 -2 -397 10 -29 15 -29 39 -3 125 16 51 25
66 40 66 28 0 70 -56 70 -95 0 -39 5 -43 51 -49 19 -3 42 -8 52 -12 12 -4 26
1 40 14 12 11 35 22 52 24 26 3 31 8 36 40 3 21 13 46 22 56 24 26 21 42 -14
78 -27 27 -29 34 -18 51 7 11 9 28 5 38 -5 14 -14 16 -45 11 -30 -5 -42 -2
-56 14 -25 27 -37 25 -63 -10 -13 -16 -30 -30 -38 -30 -8 0 -24 -5 -34 -10
-16 -9 -18 -14 -8 -35 14 -30 -5 -57 -36 -53 -25 4 -33 33 -15 55 23 27 48
145 49 225 0 50 4 79 12 85 7 4 94 8 193 9 135 1 194 6 235 18 41 12 73 15
126 10 46 -4 79 -2 92 5 29 16 178 14 230 -3 29 -10 28 -37 -3 -66 l-26 -24
-25 27 c-14 15 -28 27 -32 27 -20 -1 -35 -22 -41 -56 -8 -49 -30 -54 -80 -20
-21 15 -51 26 -69 26 -26 0 -33 -5 -38 -27 -7 -27 9 -47 80 -96 35 -24 33 -41
-9 -66 -38 -22 -69 -79 -59 -106 13 -32 42 -38 95 -19 56 20 80 13 89 -26 7
-28 32 -45 53 -37 9 3 21 24 27 47 13 49 31 58 68 34 18 -12 47 -18 89 -19 67
-1 80 8 63 48 -5 12 -21 65 -36 117 -15 52 -45 132 -66 177 -21 46 -38 89 -38
96 0 32 31 36 75 8z m665 -175 c43 -9 105 -56 135 -104 25 -38 30 -57 30 -108
0 -70 -20 -108 -70 -133 -26 -13 -142 -18 -238 -11 -47 4 -61 38 -54 130 4 65
11 89 35 129 17 26 32 59 34 72 4 31 41 49 76 38 15 -5 38 -11 52 -13z m-859
-125 c-18 -11 -41 -3 -41 14 0 20 23 25 40 8 13 -12 13 -15 1 -22z m191 -8
c20 -18 25 -78 8 -88 -15 -9 -52 17 -69 48 -25 46 21 76 61 40z m-797 -83 c3
-5 -1 -10 -9 -10 -9 0 -16 5 -16 10 0 6 4 10 9 10 6 0 13 -4 16 -10z m1697
-991 c9 -5 35 -9 57 -9 49 0 71 -8 71 -26 0 -12 -12 -13 -65 -8 -56 6 -65 4
-71 -11 -8 -21 6 -31 55 -39 20 -3 58 -19 84 -36 53 -33 68 -36 97 -18 16 10
24 10 38 0 22 -16 89 -58 166 -103 40 -24 61 -43 61 -55 0 -17 -9 -19 -69 -20
-96 -3 -230 -32 -300 -66 -45 -23 -82 -32 -160 -40 -56 -5 -131 -20 -168 -33
-37 -13 -93 -27 -125 -30 -32 -4 -112 -18 -178 -30 -167 -33 -198 -36 -295
-27 l-85 7 0 35 c0 29 -4 36 -23 38 -22 3 -26 -1 -36 -50 -7 -31 -34 -42 -76
-33 -26 6 -29 10 -24 35 6 28 5 28 -52 36 -69 8 -223 -1 -279 -17 -22 -7 -69
-17 -105 -23 -56 -10 -65 -14 -70 -36 -7 -27 2 -27 -145 -14 -63 6 -97 15
-158 45 -60 29 -95 39 -155 44 -92 8 -154 26 -204 60 -57 38 -138 65 -198 65
-69 0 -108 -25 -170 -109 -56 -75 -84 -89 -270 -136 -80 -21 -190 -50 -245
-66 -130 -38 -292 -51 -318 -25 -25 25 -21 41 19 86 35 39 75 52 89 30 10 -17
43 -11 108 18 74 34 95 55 77 77 -7 8 -19 15 -26 15 -8 0 -14 7 -14 15 0 22
50 43 87 38 26 -4 33 -2 33 11 0 9 -4 16 -10 16 -5 0 -10 9 -10 21 0 26 41 67
105 104 46 27 60 30 180 36 111 6 138 10 185 33 70 33 76 32 83 -3 l6 -30 100
3 c91 3 103 5 136 30 26 20 35 34 35 57 0 22 6 32 26 39 37 15 44 13 44 -14 0
-43 49 -59 64 -20 7 18 35 18 74 -2 77 -38 159 -34 392 16 98 21 112 22 220
11 114 -12 137 -11 304 18 32 6 84 8 115 5 39 -4 78 1 130 15 62 16 83 18 127
9 49 -10 60 -8 160 27 104 36 109 36 213 31 74 -4 126 -2 171 8 65 14 160 11
192 -5z m367 -405 c42 -16 52 -33 72 -118 13 -54 7 -301 -10 -351 -5 -16 -13
-43 -18 -60 -6 -23 -16 -31 -43 -36 -31 -7 -49 0 -150 53 -63 34 -128 71 -145
83 -16 12 -55 32 -85 44 -30 13 -120 53 -200 90 -80 38 -158 73 -173 80 -28
11 -45 36 -33 48 4 4 39 10 79 14 44 4 99 18 137 35 47 20 90 29 155 34 69 5
111 15 183 44 84 33 147 52 179 55 7 1 30 -6 52 -15z m-2669 -34 c19 -10 65
-34 103 -55 56 -30 80 -37 145 -42 72 -5 181 -34 210 -56 17 -13 15 -62 -4
-77 -8 -8 -47 -57 -86 -109 -153 -205 -215 -260 -278 -246 -31 7 -169 139
-182 175 -6 17 -3 20 22 20 35 0 39 16 11 51 -10 14 -26 42 -35 63 -9 22 -21
36 -28 33 -14 -4 -16 -51 -4 -79 16 -35 -10 -16 -38 28 -70 110 -66 284 7 314
30 13 114 2 157 -20z m1140 -110 c22 -14 9 -20 -61 -30 -88 -13 -111 -12 -107
3 10 28 134 49 168 27z"/>
<path d="M2765 3656 c-43 -19 -66 -49 -72 -94 -4 -33 -1 -44 27 -75 37 -42 83
-55 140 -38 48 14 70 48 70 105 0 85 -86 138 -165 102z"/>
<path d="M2094 3576 c-36 -16 -74 -72 -74 -110 0 -41 47 -103 87 -117 41 -13
116 -4 138 17 47 47 40 155 -13 192 -37 27 -100 35 -138 18z"/>
<path d="M2451 3553 c-17 -70 -31 -156 -25 -164 16 -26 174 11 174 40 0 6 -23
44 -51 86 -58 87 -83 97 -98 38z"/>
<path d="M2568 3306 c-48 -53 -70 -57 -118 -21 -43 32 -76 33 -84 2 -12 -48 7
-80 75 -124 35 -24 70 -43 78 -43 8 0 41 27 73 59 59 59 59 59 56 112 -4 73
-25 76 -80 15z"/>
<path d="M1460 2426 c0 -13 7 -26 15 -30 16 -6 20 10 9 38 -9 24 -24 19 -24
-8z"/>
<path d="M1935 2420 c-7 -12 2 -30 16 -30 5 0 9 9 9 20 0 21 -15 27 -25 10z"/>
<path d="M1530 2276 c0 -9 7 -16 16 -16 17 0 14 22 -4 28 -7 2 -12 -3 -12 -12z"/>
<path d="M2621 2601 c-13 -23 -6 -47 16 -55 23 -9 44 14 41 43 -4 33 -42 41
-57 12z"/>
<path d="M2334 2546 c-3 -13 -1 -34 6 -46 11 -21 12 -21 43 -3 54 32 46 73
-15 73 -21 0 -29 -6 -34 -24z"/>
<path d="M2237 2554 c-4 -4 -7 -18 -7 -31 0 -17 6 -23 21 -23 16 0 20 5 17 27
-3 26 -18 39 -31 27z"/>
<path d="M2489 2470 c-31 -31 -32 -51 -5 -110 23 -51 127 -35 151 22 20 49 9
82 -31 102 -51 24 -81 20 -115 -14z"/>
<path d="M2607 2274 c-12 -12 -8 -41 8 -54 20 -17 47 5 43 34 -3 21 -37 34
-51 20z"/>
<path d="M2690 2145 c-13 -35 -12 -65 3 -94 10 -18 21 -24 58 -26 52 -3 58 0
82 35 39 57 12 94 -75 105 -56 6 -58 6 -68 -20z"/>
<path d="M2526 2144 c-9 -22 12 -46 38 -42 15 2 21 10 21 28 0 20 -6 26 -26
28 -18 2 -29 -3 -33 -14z"/>
<path d="M3057 2129 c-8 -30 -1 -39 29 -39 22 0 25 4 22 28 -4 36 -43 44 -51
11z"/>
<path d="M2945 2100 c-11 -17 5 -32 21 -19 7 6 11 15 8 20 -7 12 -21 11 -29
-1z"/>
<path d="M3740 2470 c0 -13 5 -20 13 -17 6 2 12 10 12 17 0 7 -6 15 -12 18 -8
2 -13 -5 -13 -18z"/>
<path d="M4332 1089 c2 -6 8 -10 13 -10 5 0 11 4 13 10 2 6 -4 11 -13 11 -9 0
-15 -5 -13 -11z"/>
<path d="M4414 816 c-8 -22 0 -71 21 -121 14 -33 18 -36 26 -22 13 22 -6 126
-26 146 -12 13 -15 12 -21 -3z"/>
<path d="M4441 560 c-17 -10 -7 -40 14 -40 8 0 15 9 15 19 0 24 -12 32 -29 21z"/>
<path d="M1597 824 c-8 -8 3 -34 14 -34 11 0 12 27 0 34 -4 3 -11 3 -14 0z"/>
<path d="M4922 3508 l3 -343 428 -3 427 -2 0 -1030 0 -1030 428 2 427 3 3
1028 2 1027 373 1 c204 1 397 2 427 3 l55 1 3 343 2 342 -1290 0 -1290 0 2
-342z"/>
<path d="M16912 3588 l3 -263 377 -2 378 -2 5 22 c3 12 4 130 3 262 l-3 240
-383 3 -382 2 2 -262z"/>
<path d="M18910 3759 c-85 -44 -253 -130 -372 -192 l-218 -111 0 -183 0 -183
-140 0 -140 0 0 -280 0 -280 140 0 140 0 0 -438 c0 -451 6 -560 40 -673 53
-177 179 -298 355 -338 89 -21 247 -29 398 -20 146 8 394 43 410 58 7 7 -37
486 -48 518 -3 8 -22 6 -67 -8 -94 -30 -204 -35 -248 -12 -69 36 -70 41 -73
501 l-2 412 208 0 207 0 0 280 0 280 -207 0 -208 0 2 375 c1 281 -2 375 -10
375 -7 0 -82 -37 -167 -81z"/>
<path d="M8804 3130 c-157 -22 -261 -100 -360 -269 l-44 -76 0 153 0 152 -360
0 -360 0 0 -995 0 -995 385 0 385 0 0 408 c0 225 5 458 11 518 41 427 185 574
471 485 43 -14 79 -23 81 -20 5 7 228 521 230 532 3 13 -145 75 -218 92 -80
18 -159 23 -221 15z"/>
<path d="M10340 3138 c-3 -3 -48 -8 -100 -12 -433 -28 -681 -169 -784 -445
-28 -74 -49 -151 -44 -157 7 -6 61 -13 373 -44 165 -17 312 -32 326 -34 23 -3
29 2 49 47 62 136 177 189 395 183 158 -5 219 -53 234 -186 l7 -59 -30 -12
c-191 -70 -297 -98 -641 -169 -403 -83 -503 -120 -623 -234 -94 -89 -140 -193
-149 -343 -10 -162 34 -293 137 -406 134 -146 309 -208 590 -208 310 1 507 66
701 232 l57 49 16 -70 c8 -38 27 -92 41 -120 l25 -50 360 0 360 0 -16 38 c-10
20 -29 69 -43 107 l-26 70 -6 595 c-6 564 -7 599 -28 678 -88 342 -280 489
-693 532 -110 11 -481 25 -488 18z m453 -1195 c-3 -135 -9 -170 -42 -239 -61
-128 -217 -217 -381 -217 -124 0 -198 34 -231 107 -26 57 -24 131 4 181 40 71
120 110 367 180 85 24 180 52 210 64 30 11 60 20 65 20 6 1 9 -36 8 -96z"/>
<path d="M13305 3129 c-201 -20 -351 -96 -509 -259 -42 -43 -80 -80 -83 -82
-3 -2 -6 65 -7 147 l-1 150 -357 3 -358 2 0 -995 0 -995 385 0 385 0 0 539 c0
561 4 630 45 727 38 92 147 164 249 165 126 2 205 -45 244 -146 26 -64 31
-200 32 -732 l0 -553 386 0 385 0 -4 718 c-3 679 -5 722 -24 807 -60 265 -206
423 -449 485 -89 23 -205 30 -319 19z"/>
<path d="M15260 3129 c-347 -30 -556 -129 -686 -324 -95 -142 -106 -359 -27
-525 49 -103 158 -212 263 -263 100 -49 307 -102 600 -153 161 -28 302 -63
338 -86 86 -53 96 -155 20 -225 -13 -12 -46 -32 -73 -45 -44 -20 -66 -23 -175
-23 -117 0 -129 2 -182 28 -65 32 -107 77 -145 157 -15 30 -27 56 -28 58 -1 1
-69 -5 -151 -13 -82 -8 -198 -19 -259 -25 -60 -6 -128 -12 -150 -15 -22 -2
-75 -7 -117 -11 -51 -4 -78 -11 -78 -19 0 -22 37 -119 68 -180 93 -181 249
-298 475 -355 278 -70 759 -70 1016 0 324 89 533 319 549 604 9 167 -43 302
-163 422 -127 128 -310 197 -642 244 -302 43 -349 51 -406 67 -82 23 -127 66
-127 123 0 80 54 132 156 151 67 13 163 6 226 -17 74 -26 114 -59 143 -118 15
-31 30 -56 34 -56 6 0 481 46 566 55 115 12 145 17 145 25 0 4 -9 29 -21 55
-85 192 -229 334 -403 400 -165 62 -483 89 -766 64z"/>
<path d="M23180 3134 c-106 -7 -283 -36 -349 -56 -327 -100 -509 -357 -461
-650 19 -114 69 -209 159 -299 128 -128 245 -170 716 -259 343 -64 386 -79
426 -144 48 -79 6 -166 -106 -218 -44 -20 -66 -23 -175 -23 -117 0 -129 2
-182 28 -66 33 -108 78 -146 160 -26 56 -28 57 -62 52 -19 -2 -188 -19 -375
-36 -187 -17 -342 -33 -344 -35 -7 -7 29 -114 56 -169 90 -180 250 -311 443
-364 172 -47 309 -62 565 -62 300 0 482 31 650 110 237 112 380 310 393 545 9
167 -42 301 -161 420 -144 144 -312 203 -750 261 -356 48 -427 77 -427 177 0
106 116 170 278 154 128 -13 215 -66 254 -153 10 -24 24 -43 31 -43 7 0 165
16 352 35 187 19 343 35 348 35 14 0 7 22 -29 93 -50 101 -94 164 -156 224
-120 116 -260 177 -466 202 -92 12 -396 21 -482 15z"/>
<path d="M16910 2095 l0 -995 383 2 382 3 0 990 0 990 -382 3 -383 2 0 -995z"/>
<path d="M19851 2433 c1 -362 5 -699 10 -749 39 -402 273 -624 659 -625 284
-1 459 73 649 277 l71 76 0 -156 0 -156 360 0 360 0 0 995 0 995 -384 0 -385
0 -3 -577 c-3 -573 -4 -579 -27 -648 -19 -58 -33 -80 -79 -125 -63 -62 -111
-81 -197 -81 -83 0 -132 17 -179 64 -80 80 -79 76 -84 765 l-3 602 -385 0
-384 0 1 -657z"/>
</g>
</svg>
