<?xml version="1.0" standalone="no"?>
<!DOCTYPE svg PUBLIC "-//W3C//DTD SVG 20010904//EN"
 "http://www.w3.org/TR/2001/REC-SVG-20010904/DTD/svg10.dtd">
<svg version="1.0" xmlns="http://www.w3.org/2000/svg"
 width="18.000000pt" height="18.000000pt" viewBox="0 0 18.000000 18.000000"
 preserveAspectRatio="xMidYMid meet">

<g transform="translate(0.000000,18.000000) scale(0.100000,-0.100000)"
fill="#FFFFFF" stroke="none">
<path d="M70 163 c-44 -17 -63 -68 -44 -118 10 -24 60 -46 89 -39 76 19 71
143 -5 158 -14 3 -32 2 -40 -1z m47 -51 c-3 -15 1 -32 9 -39 24 -25 15 -33
-36 -33 -48 0 -50 1 -40 20 6 11 15 20 21 20 5 0 7 11 3 26 -7 28 9 46 33 37
10 -4 13 -15 10 -31z"/>
</g>
</svg>
